<?xml version="1.0" encoding="UTF-8" standalone="no"?>
<!-- Created with Inkscape (http://www.inkscape.org/) -->

<svg
   width="11.086061mm"
   height="11.085981mm"
   viewBox="0 0 11.086061 11.085981"
   version="1.1"
   id="svg5"
   xml:space="preserve"
   sodipodi:docname="logo.svg"
   inkscape:version="1.2 (dc2aedaf03, 2022-05-15)"
   xmlns:inkscape="http://www.inkscape.org/namespaces/inkscape"
   xmlns:sodipodi="http://sodipodi.sourceforge.net/DTD/sodipodi-0.dtd"
   xmlns:xlink="http://www.w3.org/1999/xlink"
   xmlns="http://www.w3.org/2000/svg"
   xmlns:svg="http://www.w3.org/2000/svg"><sodipodi:namedview
     id="namedview7"
     pagecolor="#ffffff"
     bordercolor="#000000"
     borderopacity="0.25"
     inkscape:showpageshadow="2"
     inkscape:pageopacity="0.0"
     inkscape:pagecheckerboard="0"
     inkscape:deskcolor="#d1d1d1"
     inkscape:document-units="mm"
     showgrid="false"
     inkscape:zoom="1"
     inkscape:cx="-81.5"
     inkscape:cy="-96"
     inkscape:window-width="1920"
     inkscape:window-height="1009"
     inkscape:window-x="-8"
     inkscape:window-y="-8"
     inkscape:window-maximized="1"
     inkscape:current-layer="layer1" /><defs
     id="defs2"><clipPath
       clipPathUnits="userSpaceOnUse"
       id="clipPath5557"><rect
         style="fill:#a4df12;fill-opacity:1;fill-rule:evenodd;stroke-width:0.298521;stroke-opacity:0.0972477;paint-order:stroke fill markers;stop-color:#000000"
         id="rect5559"
         width="35.291084"
         height="35.291084"
         x="140.62669"
         y="154.01772"
         ry="10.352543" /></clipPath><linearGradient
       inkscape:collect="always"
       xlink:href="#linearGradient18775"
       id="linearGradient18777"
       x1="107.74998"
       y1="167.65305"
       x2="94.593498"
       y2="157.00356"
       gradientUnits="userSpaceOnUse"
       gradientTransform="translate(11.722607,12.23054)" /><linearGradient
       inkscape:collect="always"
       id="linearGradient18775"><stop
         style="stop-color:#1f1f1f;stop-opacity:1;"
         offset="0"
         id="stop18771" /><stop
         style="stop-color:#000000;stop-opacity:1;"
         offset="1"
         id="stop18773" /></linearGradient><linearGradient
       inkscape:collect="always"
       xlink:href="#linearGradient5714"
       id="linearGradient5716"
       x1="97.600281"
       y1="163.66895"
       x2="103.19898"
       y2="169.19975"
       gradientUnits="userSpaceOnUse"
       gradientTransform="matrix(0.55766906,0,0,0.55766906,60.156815,84.553431)" /><linearGradient
       inkscape:collect="always"
       id="linearGradient5714"><stop
         style="stop-color:#00ff9a;stop-opacity:1;"
         offset="0"
         id="stop5710" /><stop
         style="stop-color:#a4df12;stop-opacity:1;"
         offset="1"
         id="stop5712" /></linearGradient></defs><g
     inkscape:label="Layer 1"
     inkscape:groupmode="layer"
     id="layer1"
     transform="translate(-111.66739,-172.78618)"><rect
       style="fill:url(#linearGradient18777);fill-opacity:1;fill-rule:evenodd;stroke-width:0.0937743;stroke-opacity:0.0972477;paint-order:stroke fill markers;stop-color:#000000"
       id="rect354"
       width="11.085961"
       height="11.085961"
       x="111.66739"
       y="172.78618"
       ry="3.2520366"
       inkscape:export-filename="partners\images\logo.png"
       inkscape:export-xdpi="458.23294"
       inkscape:export-ydpi="458.23294" /><path
       id="path9155"
       style="fill:#000000;fill-opacity:0.53211;fill-rule:evenodd;stroke:none;stroke-width:0.57349;stroke-linecap:round;stroke-dasharray:none;stroke-opacity:0.611009;paint-order:stroke fill markers;stop-color:#000000"
       d="m 116.60131,174.72377 -2.217,1.59107 -0.5219,1.25186 0.54784,2.79106 3.12189,3.5144 h 1.96916 c 1.80162,0 3.25215,-1.45053 3.25215,-3.25215 v -2.55562 l -3.41354,-2.79307 z" /><path
       style="fill:none;fill-rule:evenodd;stroke:#000000;stroke-width:0.462151;stroke-dasharray:none;stroke-opacity:0.99633;paint-order:stroke fill markers;stop-color:#000000"
       id="ellipse4206"
       sodipodi:type="arc"
       sodipodi:cx="117.41084"
       sodipodi:cy="178.06854"
       sodipodi:rx="1.208644"
       sodipodi:ry="1.208644"
       sodipodi:start="5.6725278"
       sodipodi:end="1.2461802"
       sodipodi:arc-type="arc"
       d="m 118.40105,177.3755 a 1.208644,1.208644 0 0 1 0.15793,1.07067 1.208644,1.208644 0 0 1 -0.76265,0.76789"
       sodipodi:open="true" /><path
       id="path4333"
       style="color:#000000;fill:url(#linearGradient5716);fill-opacity:1;fill-rule:evenodd;stroke:none;stroke-width:0.570635;stroke-linecap:round;stroke-dasharray:none;stroke-opacity:0.611009;paint-order:stroke fill markers"
       d="m 116.99668,174.52431 v 0.047 c -1.85048,0.12564 -3.32532,1.66597 -3.32535,3.58443 -4e-5,2.00008 1.58913,3.63137 3.55071,3.6314 1.29436,-0.001 2.48573,-0.72298 3.10864,-1.87983 l 0.18415,-0.34092 -1.70259,0.0383 c -0.0868,-0.0777 -0.17853,-0.14779 -0.27407,-0.20979 -0.18284,-0.1496 -0.38141,-0.27609 -0.70402,-0.37753 l -0.0556,-0.0185 -0.0588,0.013 c -0.29192,0.062 -0.45213,0.0634 -0.85591,-0.14928 -0.29984,-0.21383 -0.4381,-0.50361 -0.42939,-0.8026 0.009,-0.29834 0.16772,-0.60717 0.49683,-0.84206 0.21125,-0.10424 0.38827,-0.15704 0.58836,-0.13614 0.20594,0.0215 0.44164,0.10484 0.62402,0.33873 l 0.16427,0.21124 0.68069,-0.75159 1.73515,0.53372 -0.13602,-0.41383 c -0.48469,-1.47554 -1.83944,-2.4756 -3.3657,-2.47579 z m 0.22536,0.45216 c 1.16341,1.4e-4 2.18137,0.68704 2.71094,1.7219 l -1.08702,-0.33314 -0.5152,0.59585 c -0.20677,-0.17569 -0.48349,-0.30989 -0.71881,-0.33447 -0.31962,-0.0334 -0.6308,0.0538 -0.90403,0.19279 l -0.0141,0.007 -0.0129,0.009 c -0.44262,0.30814 -0.68507,0.75836 -0.69826,1.21123 -0.0128,0.4369 0.19195,0.87158 0.58472,1.16542 -0.60449,0.25413 -1.07043,0.77609 -1.28876,1.42248 -0.705,-0.58208 -1.1565,-1.47465 -1.15648,-2.47896 2e-5,-1.76172 1.38841,-3.17922 3.09999,-3.17924 z m 0.14381,4.52247 c 0.38612,-0.004 0.76608,0.12914 1.08299,0.38962 0.0373,0.0337 0.0771,0.0694 0.12132,0.10893 0.001,5.6e-4 0.002,0.002 0.003,0.002 0.001,0.001 0.002,0.002 0.003,0.003 0.001,0.001 0.002,0.002 0.003,0.003 l 0.0597,0.0539 0.0357,-0.001 c 0.0422,0.0115 0.0869,0.0105 0.12853,-0.003 l 0.80404,-0.0181 c -0.58166,0.77002 -1.41969,1.29737 -2.3853,1.29826 -0.56632,0 -1.09722,-0.15542 -1.55417,-0.42708 0.16937,-0.63235 0.61597,-1.12694 1.18386,-1.32103 0.16915,-0.0578 0.34225,-0.087 0.51412,-0.0891 z"
       sodipodi:nodetypes="ccccccccccccscscccccccccccsccccccccscscccccccccss" /></g></svg>
