<?xml version="1.0" encoding="UTF-8" standalone="no"?>
<!-- Created with Inkscape (http://www.inkscape.org/) -->

<svg
   width="210mm"
   height="297mm"
   viewBox="0 0 210 297"
   version="1.1"
   id="svg5"
   xml:space="preserve"
   inkscape:version="1.2 (dc2aedaf03, 2022-05-15)"
   sodipodi:docname="logo.svg"
   xmlns:inkscape="http://www.inkscape.org/namespaces/inkscape"
   xmlns:sodipodi="http://sodipodi.sourceforge.net/DTD/sodipodi-0.dtd"
   xmlns:xlink="http://www.w3.org/1999/xlink"
   xmlns="http://www.w3.org/2000/svg"
   xmlns:svg="http://www.w3.org/2000/svg"><sodipodi:namedview
     id="namedview7"
     pagecolor="#ffffff"
     bordercolor="#000000"
     borderopacity="0.25"
     inkscape:showpageshadow="2"
     inkscape:pageopacity="0.0"
     inkscape:pagecheckerboard="0"
     inkscape:deskcolor="#d1d1d1"
     inkscape:document-units="mm"
     showgrid="false"
     inkscape:zoom="0.70710678"
     inkscape:cx="573.4636"
     inkscape:cy="550.12907"
     inkscape:window-width="1920"
     inkscape:window-height="1009"
     inkscape:window-x="-8"
     inkscape:window-y="-8"
     inkscape:window-maximized="1"
     inkscape:current-layer="layer1" /><defs
     id="defs2"><linearGradient
       inkscape:collect="always"
       id="linearGradient5714"><stop
         style="stop-color:#00ff9a;stop-opacity:1;"
         offset="0"
         id="stop5710" /><stop
         style="stop-color:#a4df12;stop-opacity:1;"
         offset="1"
         id="stop5712" /></linearGradient><clipPath
       clipPathUnits="userSpaceOnUse"
       id="clipPath5557"><rect
         style="fill:#a4df12;fill-opacity:1;fill-rule:evenodd;stroke-width:0.298521;stroke-opacity:0.0972477;paint-order:stroke fill markers;stop-color:#000000"
         id="rect5559"
         width="35.291084"
         height="35.291084"
         x="140.62669"
         y="154.01772"
         ry="10.352543" /></clipPath><linearGradient
       inkscape:collect="always"
       xlink:href="#linearGradient5714"
       id="linearGradient5716"
       x1="97.600281"
       y1="163.66895"
       x2="103.19898"
       y2="169.19975"
       gradientUnits="userSpaceOnUse"
       gradientTransform="matrix(0.55766906,0,0,0.55766906,48.434208,72.322891)" /></defs><g
     inkscape:label="Layer 1"
     inkscape:groupmode="layer"
     id="layer1"><rect
       style="fill:#1f1f1f;fill-opacity:1;fill-rule:evenodd;stroke-width:0.0937743;stroke-opacity:0.0972477;paint-order:stroke fill markers;stop-color:#000000"
       id="rect354"
       width="11.085961"
       height="11.085961"
       x="99.944778"
       y="160.55563"
       ry="3.2520366"
       inkscape:export-filename="logo.png"
       inkscape:export-xdpi="458.23294"
       inkscape:export-ydpi="458.23294" /><path
       id="path9155"
       style="opacity:1;fill:#000000;fill-opacity:0.53211;fill-rule:evenodd;stroke:none;stroke-width:0.57349;stroke-linecap:round;stroke-dasharray:none;stroke-opacity:0.611009;paint-order:stroke fill markers;stop-color:#000000"
       d="m 104.8787,162.49323 -2.217,1.59107 -0.5219,1.25186 0.54784,2.79106 3.12189,3.5144 h 1.96916 c 1.80162,0 3.25215,-1.45053 3.25215,-3.25215 v -2.55562 l -3.41354,-2.79307 z" /><path
       style="opacity:1;fill:none;fill-rule:evenodd;stroke:#000000;stroke-width:0.462151;stroke-dasharray:none;stroke-opacity:0.99633;paint-order:stroke fill markers;stop-color:#000000"
       id="ellipse4206"
       sodipodi:type="arc"
       sodipodi:cx="105.68823"
       sodipodi:cy="165.838"
       sodipodi:rx="1.208644"
       sodipodi:ry="1.208644"
       sodipodi:start="5.6725278"
       sodipodi:end="1.2461802"
       sodipodi:arc-type="arc"
       d="m 106.67844,165.14495 a 1.208644,1.208644 0 0 1 0.15793,1.07068 1.208644,1.208644 0 0 1 -0.76265,0.76789"
       sodipodi:open="true" /><path
       id="path4333"
       style="color:#000000;fill:url(#linearGradient5716);fill-opacity:1;fill-rule:evenodd;stroke:none;stroke-width:0.570635;stroke-linecap:round;stroke-dasharray:none;stroke-opacity:0.611009;paint-order:stroke fill markers"
       d="m 105.27407,162.29377 v 0.047 c -1.85048,0.12564 -3.32532,1.66597 -3.32535,3.58443 -4e-5,2.00008 1.58913,3.63137 3.55071,3.6314 1.29436,-0.001 2.48573,-0.72298 3.10864,-1.87983 l 0.18415,-0.34092 -1.70259,0.0383 c -0.0868,-0.0777 -0.17853,-0.14779 -0.27407,-0.20979 -0.18284,-0.1496 -0.38141,-0.27609 -0.70402,-0.37753 l -0.0556,-0.0185 -0.0588,0.013 c -0.29192,0.062 -0.45213,0.0634 -0.85591,-0.14928 -0.29984,-0.21383 -0.4381,-0.50361 -0.42939,-0.8026 0.009,-0.29834 0.16772,-0.60717 0.49683,-0.84206 0.21125,-0.10424 0.38827,-0.15704 0.58836,-0.13614 0.20594,0.0215 0.44164,0.10484 0.62402,0.33873 l 0.16427,0.21124 0.68069,-0.75159 1.73515,0.53372 -0.13602,-0.41383 c -0.48469,-1.47554 -1.83944,-2.4756 -3.3657,-2.47579 z m 0.22536,0.45216 c 1.16341,1.4e-4 2.18137,0.68704 2.71094,1.7219 l -1.08702,-0.33314 -0.5152,0.59585 c -0.20677,-0.17569 -0.48349,-0.30989 -0.71881,-0.33447 -0.31962,-0.0334 -0.6308,0.0538 -0.90403,0.19279 l -0.0141,0.007 -0.0129,0.009 c -0.44262,0.30814 -0.68507,0.75836 -0.69826,1.21123 -0.0128,0.4369 0.19195,0.87158 0.58472,1.16542 -0.60449,0.25413 -1.07043,0.77609 -1.28876,1.42248 -0.705,-0.58208 -1.1565,-1.47465 -1.15648,-2.47896 2e-5,-1.76172 1.38841,-3.17922 3.09999,-3.17924 z m 0.14381,4.52247 c 0.38612,-0.004 0.76608,0.12914 1.08299,0.38962 0.0373,0.0337 0.0771,0.0694 0.12132,0.10893 0.001,5.6e-4 0.002,0.002 0.003,0.002 0.001,0.001 0.002,0.002 0.003,0.003 0.001,0.001 0.002,0.002 0.003,0.003 l 0.0597,0.0539 0.0357,-10e-4 c 0.0422,0.0115 0.0869,0.0105 0.12853,-0.003 l 0.80404,-0.0181 c -0.58166,0.77002 -1.41969,1.29737 -2.3853,1.29826 -0.56632,0 -1.09722,-0.15542 -1.55417,-0.42708 0.16937,-0.63235 0.61597,-1.12694 1.18386,-1.32103 0.16915,-0.0578 0.34225,-0.087 0.51412,-0.0891 z"
       sodipodi:nodetypes="ccccccccccccscscccccccccccsccccccccscscccccccccss" /><ellipse
       style="fill:none;fill-rule:evenodd;stroke:#ffaaaa;stroke-width:1.94559;stroke-dasharray:none;stroke-opacity:1;paint-order:stroke fill markers;stop-color:#000000"
       id="path2903"
       cx="55.816063"
       cy="213.56023"
       rx="5.5744324"
       ry="5.7618079" /><path
       style="fill:none;fill-rule:evenodd;stroke:#ffaaaa;stroke-width:1.94559;stroke-dasharray:none;stroke-opacity:1;paint-order:stroke fill markers;stop-color:#000000"
       id="ellipse2905"
       sodipodi:type="arc"
       sodipodi:cx="55.986031"
       sodipodi:cy="229.73083"
       sodipodi:rx="9.4005051"
       sodipodi:ry="10.229516"
       sodipodi:start="3.0336819"
       sodipodi:end="0.085708643"
       sodipodi:arc-type="arc"
       d="m 46.640206,230.83257 a 9.4005051,10.229516 0 0 1 4.297016,-9.73066 9.4005051,10.229516 0 0 1 9.920332,-0.11985 9.4005051,10.229516 0 0 1 4.494475,9.62446"
       sodipodi:open="true" /><path
       id="path4318"
       style="fill:none;fill-rule:evenodd;stroke:#ff0000;stroke-width:0.809785;stroke-dasharray:none;stroke-opacity:1;paint-order:stroke fill markers;stop-color:#000000"
       d="m 132.15628,155.60318 c -3.29327,4e-5 -5.96299,2.73418 -5.96303,6.10693 -8e-5,3.37284 2.66967,6.10712 5.96303,6.10716 2.17092,-0.002 4.16955,-1.21108 5.21787,-3.15799 l -2.52684,0.0558 c 0,0 -0.97086,-1.29557 -1.08237,-1.40223 -0.57592,0.12241 -1.1455,0.87171 -2.4732,0.015 -1.58803,-1.07501 -1.0652,-2.79435 -0.061,-3.53635 0.80842,-0.681 2.12586,-0.6378 2.89668,0.35065 l 1.06916,-1.18161 2.18991,-0.0162 c -0.53574,-1.66679 -2.66982,-3.34097 -5.2302,-3.34128 z"
       sodipodi:nodetypes="ccccccccccccc" /><rect
       style="fill:#a4df12;fill-opacity:1;fill-rule:evenodd;stroke-width:0.202285;stroke-opacity:0.0972477;paint-order:stroke fill markers;stop-color:#000000"
       id="rect5566"
       width="23.914"
       height="23.914"
       x="124.09023"
       y="193.70522"
       ry="7.0151067" /><path
       id="rect5563"
       style="opacity:1;fill:#ffffff;fill-opacity:1;fill-rule:evenodd;stroke:none;stroke-width:0.423236;stroke-linecap:round;stroke-dasharray:none;stroke-opacity:0.233027;paint-order:stroke fill markers;stop-color:#000000"
       d="m 136.45773,198.44985 c -1.2444,-0.002 -2.88029,0.47679 -4.1121,1.20309 -0.37865,0.22326 -0.98954,0.58389 -1.35756,0.80125 -0.96827,0.57187 -1.49143,1.09953 -1.90793,1.92467 -0.34861,0.69061 -0.36728,0.7857 -0.36728,1.87741 0,1.18062 0.10793,1.59061 0.65596,2.4926 0.18311,0.30136 0.17788,0.33233 -0.25303,1.53606 l -0.43992,1.22874 2.58819,1.35324 c 1.42337,0.74428 3.13685,1.64435 3.80802,2.00002 1.37215,0.72711 1.57823,0.75858 3.02379,0.46421 2.29964,-0.46828 4.24028,-1.77338 5.4405,-3.65895 l 0.3589,-0.56387 -1.11397,0.0767 c -0.61262,0.0422 -1.43514,0.10819 -1.828,0.14663 l -0.71428,0.0699 -0.28356,-0.60114 -0.28383,-0.6014 -0.60789,0.0869 c -1.04622,0.14943 -1.30408,0.0448 -1.30408,-0.52958 0,-0.17826 -0.0514,-0.35846 -0.11424,-0.40021 -0.0629,-0.0417 -0.0892,-0.1466 -0.0584,-0.23306 0.0309,-0.0864 0.006,-0.19034 -0.0548,-0.23089 -0.0611,-0.0405 -0.0816,-0.19965 -0.0456,-0.3535 0.055,-0.23553 0.0141,-0.29878 -0.25898,-0.40103 -0.17839,-0.0668 -0.32433,-0.15707 -0.32433,-0.20038 0,-0.0434 0.17021,-0.4232 0.37833,-0.84419 0.26683,-0.53971 0.35892,-0.84844 0.31246,-1.04727 -0.0368,-0.1574 -0.014,-0.31649 0.0516,-0.35998 0.0645,-0.0428 0.58292,0.0378 1.15206,0.17905 l 1.03484,0.25681 0.29004,-0.37321 0.29003,-0.37321 1.83934,0.39374 1.83933,0.39347 -0.068,-0.29139 c -0.11745,-0.50265 -0.69439,-1.6609 -1.12558,-2.25981 -1.3389,-1.85969 -3.98357,-3.158 -6.43996,-3.16152 z m 0.0135,0.83717 c 0.27257,-8.6e-4 0.54906,0.0226 0.88038,0.0702 0.93148,0.13401 2.5493,0.65178 2.5493,0.81584 0,0.0525 -0.19131,0.1301 -0.42533,0.17256 -0.23402,0.0425 -0.70392,0.27068 -1.04403,0.50716 -0.93945,0.65323 -1.46265,1.58772 -1.59493,2.84852 -0.0699,0.66623 -0.29033,1.3022 -0.45153,1.3022 -0.0464,0 -0.16571,-0.18274 -0.26492,-0.40616 -0.0992,-0.22352 -0.18067,-0.57655 -0.18067,-0.78423 0,-0.58172 -0.28544,-1.48211 -0.63381,-1.99866 -0.4085,-0.6057 -0.92972,-1.02598 -1.67568,-1.35163 -0.33044,-0.14424 -0.54807,-0.29723 -0.48367,-0.33999 0.31902,-0.21178 1.71617,-0.64208 2.46829,-0.76021 0.31552,-0.0495 0.58404,-0.0748 0.8566,-0.0756 z m 4.08267,1.78667 c 0.29043,0.003 0.5586,0.0396 0.7413,0.11423 0.41586,0.16983 1.62947,1.64861 1.47827,1.80126 -0.0195,0.0197 -0.6134,-0.0857 -1.32002,-0.23413 l -1.28491,-0.26979 -0.32623,0.33919 c -0.36647,0.38105 -0.38041,0.38253 -1.30651,0.13394 -0.36804,-0.0988 -0.66892,-0.22341 -0.66892,-0.27707 0,-0.21597 0.90324,-1.13126 1.34108,-1.35891 0.31599,-0.1643 0.8619,-0.25353 1.34594,-0.24872 z m -8.17586,0.006 c 1.58081,0 2.81153,1.28614 2.81233,2.93873 1.6e-4,0.30028 0.11843,0.70878 0.32947,1.13881 0.34975,0.71269 0.34815,0.99677 -0.005,0.99677 -0.17065,0 -0.22081,0.0805 -0.2336,0.37375 -0.0267,0.61209 -0.0344,0.64639 -0.17256,0.79477 -0.0729,0.0783 -0.13233,0.30481 -0.13233,0.50338 0,0.47491 -0.3197,0.64152 -0.97165,0.50635 -0.91195,-0.18908 -0.88235,-0.2107 -1.29275,0.94869 -0.20577,0.58128 -0.4187,1.0698 -0.4734,1.08562 -0.0547,0.0159 -0.64146,-0.24935 -1.30382,-0.58899 h -2.7e-4 c -0.68559,-0.35158 -1.20417,-0.68681 -1.20417,-0.77829 0,-0.0884 0.15965,-0.59772 0.35485,-1.13179 l 0.35512,-0.97112 -0.35512,-0.51499 c -1.54275,-2.23807 -0.21757,-5.30169 2.29329,-5.30169 z m 3.98355,6.10942 c 0.0352,0 0.22115,0.30723 0.41346,0.68296 0.53579,1.04682 0.84376,1.27196 1.74049,1.27196 h 0.73941 l 0.2741,0.58115 c 0.20092,0.42587 0.32307,0.5665 0.45693,0.52688 0.41623,-0.1232 2.1634,-0.2004 2.1634,-0.0956 0,0.18863 -1.39621,1.2778 -2.10128,1.63923 -0.76595,0.39264 -1.93575,0.73675 -2.87716,0.84608 -0.642,0.0746 -0.64355,0.0739 -2.42778,-0.87795 l -1.78505,-0.95248 0.30057,-0.80502 0.30057,-0.80476 0.76128,-0.0338 c 0.70714,-0.0314 0.78653,-0.0619 1.11613,-0.42642 0.19517,-0.21584 0.46879,-0.65346 0.6079,-0.97246 0.1391,-0.319 0.28181,-0.5798 0.31703,-0.5798 z" /><path
       id="path5590"
       style="fill:none;fill-rule:evenodd;stroke:#ff0000;stroke-width:0.809785;stroke-dasharray:none;stroke-opacity:1;paint-order:stroke fill markers;stop-color:#000000"
       d="m 153.71982,155.60318 c -3.29327,4e-5 -5.96299,2.73418 -5.96303,6.10693 -8e-5,3.37284 2.66967,6.10712 5.96303,6.10716 2.17092,-0.002 4.16955,-1.21108 5.21787,-3.15799 l -2.52684,0.0558 c -0.57485,-0.51337 -0.85393,-0.80446 -1.71379,-1.07482 -0.57592,0.12241 -1.02857,0.12335 -1.84178,-0.3124 -1.3074,-0.91131 -1.27568,-2.67742 0.12608,-3.65328 0.87858,-0.44714 1.93877,-0.52087 2.70959,0.46758 l 1.06916,-1.18161 2.61086,0.80233 c -0.81637,-2.4853 -3.09077,-4.15948 -5.65115,-4.15979 z"
       sodipodi:nodetypes="ccccccccccccc" /></g></svg>
