<svg width="140" height="25" viewBox="0 0 140 25" fill="none" xmlns="http://www.w3.org/2000/svg">
<g clip-path="url(#clip0_1267_1614)">
<path d="M8.24423 7.34004L1.86423 8.26505L1.75123 8.28804C1.58017 8.33346 1.42423 8.42345 1.29932 8.54885C1.17442 8.67424 1.08503 8.83053 1.04029 9.00177C0.995552 9.17301 0.997058 9.35305 1.04466 9.52352C1.09226 9.69398 1.18425 9.84876 1.31123 9.97204L5.93323 14.471L4.84323 20.826L4.83023 20.936C4.81976 21.113 4.8565 21.2895 4.93668 21.4475C5.01686 21.6056 5.13761 21.7395 5.28657 21.8356C5.43552 21.9316 5.60732 21.9863 5.78438 21.9942C5.96144 22.002 6.13739 21.9626 6.29423 21.88L12.0002 18.88L17.6932 21.88L17.7932 21.926C17.9583 21.9911 18.1377 22.011 18.313 21.9838C18.4883 21.9566 18.6532 21.8833 18.7908 21.7713C18.9284 21.6593 19.0338 21.5128 19.0961 21.3467C19.1583 21.1806 19.1753 21.0009 19.1452 20.826L18.0542 14.471L22.6782 9.97104L22.7562 9.88604C22.8677 9.74881 22.9407 9.5845 22.968 9.40984C22.9952 9.23518 22.9757 9.05642 22.9113 8.89178C22.847 8.72713 22.7402 8.58248 22.6017 8.47256C22.4633 8.36264 22.2982 8.29138 22.1232 8.26604L15.7432 7.34004L12.8912 1.56004C12.8087 1.39258 12.6809 1.25156 12.5224 1.15295C12.3639 1.05434 12.1809 1.00208 11.9942 1.00208C11.8075 1.00208 11.6246 1.05434 11.466 1.15295C11.3075 1.25156 11.1798 1.39258 11.0972 1.56004L8.24423 7.34004Z" fill="#FFBF00"/>
</g>
<g clip-path="url(#clip1_1267_1614)">
<path d="M37.2442 7.34004L30.8642 8.26505L30.7512 8.28804C30.5802 8.33346 30.4242 8.42345 30.2993 8.54885C30.1744 8.67424 30.085 8.83053 30.0403 9.00177C29.9956 9.17301 29.9971 9.35305 30.0447 9.52352C30.0923 9.69398 30.1842 9.84876 30.3112 9.97204L34.9332 14.471L33.8432 20.826L33.8302 20.936C33.8198 21.113 33.8565 21.2895 33.9367 21.4475C34.0169 21.6056 34.1376 21.7395 34.2866 21.8356C34.4355 21.9316 34.6073 21.9863 34.7844 21.9942C34.9614 22.002 35.1374 21.9626 35.2942 21.88L41.0002 18.88L46.6932 21.88L46.7932 21.926C46.9583 21.9911 47.1377 22.011 47.313 21.9838C47.4883 21.9566 47.6532 21.8833 47.7908 21.7713C47.9284 21.6593 48.0338 21.5128 48.0961 21.3467C48.1583 21.1806 48.1753 21.0009 48.1452 20.826L47.0542 14.471L51.6782 9.97104L51.7562 9.88604C51.8677 9.74881 51.9407 9.5845 51.968 9.40984C51.9952 9.23518 51.9757 9.05642 51.9113 8.89178C51.847 8.72713 51.7402 8.58248 51.6017 8.47256C51.4633 8.36264 51.2982 8.29138 51.1232 8.26604L44.7432 7.34004L41.8912 1.56004C41.8087 1.39258 41.6809 1.25156 41.5224 1.15295C41.3639 1.05434 41.1809 1.00208 40.9942 1.00208C40.8075 1.00208 40.6246 1.05434 40.466 1.15295C40.3075 1.25156 40.1798 1.39258 40.0972 1.56004L37.2442 7.34004Z" fill="#FFBF00"/>
</g>
<g clip-path="url(#clip2_1267_1614)">
<path d="M66.2442 7.34004L59.8642 8.26505L59.7512 8.28804C59.5802 8.33346 59.4242 8.42345 59.2993 8.54885C59.1744 8.67424 59.085 8.83053 59.0403 9.00177C58.9956 9.17301 58.9971 9.35305 59.0447 9.52352C59.0923 9.69398 59.1842 9.84876 59.3112 9.97204L63.9332 14.471L62.8432 20.826L62.8302 20.936C62.8198 21.113 62.8565 21.2895 62.9367 21.4475C63.0169 21.6056 63.1376 21.7395 63.2866 21.8356C63.4355 21.9316 63.6073 21.9863 63.7844 21.9942C63.9614 22.002 64.1374 21.9626 64.2942 21.88L70.0002 18.88L75.6932 21.88L75.7932 21.926C75.9583 21.9911 76.1377 22.011 76.313 21.9838C76.4883 21.9566 76.6532 21.8833 76.7908 21.7713C76.9284 21.6593 77.0338 21.5128 77.0961 21.3467C77.1583 21.1806 77.1753 21.0009 77.1452 20.826L76.0542 14.471L80.6782 9.97104L80.7562 9.88604C80.8677 9.74881 80.9407 9.5845 80.968 9.40984C80.9952 9.23518 80.9757 9.05642 80.9113 8.89178C80.847 8.72713 80.7402 8.58248 80.6017 8.47256C80.4633 8.36264 80.2982 8.29138 80.1232 8.26604L73.7432 7.34004L70.8912 1.56004C70.8087 1.39258 70.6809 1.25156 70.5224 1.15295C70.3639 1.05434 70.1809 1.00208 69.9942 1.00208C69.8075 1.00208 69.6246 1.05434 69.466 1.15295C69.3075 1.25156 69.1798 1.39258 69.0972 1.56004L66.2442 7.34004Z" fill="#FFBF00"/>
</g>
<g clip-path="url(#clip3_1267_1614)">
<path d="M95.2442 7.34004L88.8642 8.26505L88.7512 8.28804C88.5802 8.33346 88.4242 8.42345 88.2993 8.54885C88.1744 8.67424 88.085 8.83053 88.0403 9.00177C87.9956 9.17301 87.9971 9.35305 88.0447 9.52352C88.0923 9.69398 88.1842 9.84876 88.3112 9.97204L92.9332 14.471L91.8432 20.826L91.8302 20.936C91.8198 21.113 91.8565 21.2895 91.9367 21.4475C92.0169 21.6056 92.1376 21.7395 92.2866 21.8356C92.4355 21.9316 92.6073 21.9863 92.7844 21.9942C92.9614 22.002 93.1374 21.9626 93.2942 21.88L99.0002 18.88L104.693 21.88L104.793 21.926C104.958 21.9911 105.138 22.011 105.313 21.9838C105.488 21.9566 105.653 21.8833 105.791 21.7713C105.928 21.6593 106.034 21.5128 106.096 21.3467C106.158 21.1806 106.175 21.0009 106.145 20.826L105.054 14.471L109.678 9.97104L109.756 9.88604C109.868 9.74881 109.941 9.5845 109.968 9.40984C109.995 9.23518 109.976 9.05642 109.911 8.89178C109.847 8.72713 109.74 8.58248 109.602 8.47256C109.463 8.36264 109.298 8.29138 109.123 8.26604L102.743 7.34004L99.8912 1.56004C99.8087 1.39258 99.6809 1.25156 99.5224 1.15295C99.3639 1.05434 99.1809 1.00208 98.9942 1.00208C98.8075 1.00208 98.6246 1.05434 98.466 1.15295C98.3075 1.25156 98.1798 1.39258 98.0972 1.56004L95.2442 7.34004Z" fill="#FFBF00"/>
</g>
<g clip-path="url(#clip4_1267_1614)">
<path d="M127.994 1.50208C128.087 1.50208 128.18 1.52797 128.259 1.57727C128.338 1.62657 128.401 1.69772 128.442 1.78137L131.295 7.56165L131.411 7.797L131.672 7.83508L138.052 8.76086C138.139 8.77356 138.222 8.80946 138.291 8.86438C138.36 8.91922 138.413 8.99132 138.445 9.07336C138.477 9.15569 138.487 9.2458 138.474 9.33313C138.46 9.41807 138.424 9.49716 138.371 9.56458L138.322 9.61829L133.705 14.1124L133.517 14.296L133.562 14.5558L134.652 20.9103V20.9113C134.667 20.9985 134.659 21.0881 134.628 21.171C134.597 21.2541 134.544 21.3279 134.476 21.3839C134.407 21.4399 134.324 21.4758 134.236 21.4894C134.151 21.5027 134.063 21.4928 133.982 21.462L133.919 21.4337L128.233 18.4376L128.001 18.3146L127.768 18.4376L122.062 21.4376C121.983 21.4789 121.895 21.4981 121.807 21.4943C121.718 21.4904 121.632 21.4632 121.558 21.4152C121.483 21.3672 121.423 21.3006 121.383 21.2218C121.344 21.1458 121.326 21.0608 121.329 20.9757L121.34 20.8849L122.426 14.5558L122.471 14.296L122.282 14.1124L117.66 9.6134H117.659C117.596 9.55178 117.55 9.47397 117.526 9.38879C117.503 9.30362 117.502 9.2136 117.524 9.12805C117.547 9.04252 117.591 8.96413 117.653 8.90149C117.714 8.84041 117.79 8.7968 117.873 8.77356L117.951 8.75696L124.316 7.83508L124.576 7.797L124.692 7.56165L127.546 1.78137C127.587 1.69764 127.651 1.62658 127.73 1.57727C127.81 1.52812 127.901 1.50209 127.994 1.50208Z" fill="url(#paint0_linear_1267_1614)" stroke="#FFBF00"/>
</g>
<defs>
<linearGradient id="paint0_linear_1267_1614" x1="127" y1="12.5856" x2="130.5" y2="12.5856" gradientUnits="userSpaceOnUse">
<stop stop-color="#FFBF00"/>
<stop offset="0.125" stop-color="#997300" stop-opacity="0"/>
</linearGradient>
<clipPath id="clip0_1267_1614">
<rect width="24" height="24" fill="white"/>
</clipPath>
<clipPath id="clip1_1267_1614">
<rect width="24" height="24" fill="white" transform="translate(29)"/>
</clipPath>
<clipPath id="clip2_1267_1614">
<rect width="24" height="24" fill="white" transform="translate(58)"/>
</clipPath>
<clipPath id="clip3_1267_1614">
<rect width="24" height="24" fill="white" transform="translate(87)"/>
</clipPath>
<clipPath id="clip4_1267_1614">
<rect width="24" height="24" fill="white" transform="translate(116)"/>
</clipPath>
</defs>
</svg>
